# xmcd
# 
# Track frame offsets:
#     150
#     26982
#     55757
#     68780
#     82503
#     111476
#     133811
#     185369
# 
# Disc length: 3344
# 
# Revision: 0
# Processed by: cddbd v1.5.2PL0 Copyright (c) Steve Scherf et al.
# Submitted via: BonkEnc v1.0.8
# 
DISCID=690d0e08
DTITLE=Celso Krause - Bossa ´n´dombe
DYEAR=2005
DGENRE=Fusion 
TTITLE0=Pulsar 
TTITLE1=Realejo (Passarinho vem) 
TTITLE2=Beba do blues 
TTITLE3=Vambê 
TTITLE4=Estourando pipoca 
TTITLE5=Bossa ´n´dombe 
TTITLE6=Arabesque 
TTITLE7=Estourando pipoca 2-Gran finale
EXTD=
EXTT0=
EXTT1=
EXTT2=
EXTT3=
EXTT4=
EXTT5=
EXTT6=
EXTT7=
PLAYORDER=
